<?xml version="1.0" encoding="UTF-8"?>
<!-- Generated by Pixelmator Pro 3.5.6 -->
<svg width="450" height="450" viewBox="0 0 450 450" xmlns="http://www.w3.org/2000/svg">
    <path id="Rounded-Rectangle" fill="none" stroke="#000000" stroke-width="34" stroke-linecap="round"
        stroke-linejoin="round"
        d="M 112.785156 427.964844 C 79.383881 427.964844 62.682236 427.963867 50.160156 420.951172 C 41.310253 415.994995 34.005013 408.689758 29.048828 399.839844 C 22.036131 387.317749 22.035156 370.616119 22.035156 337.214844 L 22.035156 298.828125 L 40.128906 298.828125 L 40.128906 350.470703 C 40.128906 372.333344 40.128616 383.264679 44.71875 391.460938 C 47.962795 397.253601 52.746403 402.037201 58.539063 405.28125 C 66.735329 409.871368 77.666649 409.871094 99.529297 409.871094 L 151.171875 409.871094 L 151.171875 427.964844 L 112.785156 427.964844 Z M 297.949219 427.964844 L 297.949219 409.871094 L 349.599609 409.871094 C 371.462219 409.871094 382.393555 409.871399 390.589844 405.28125 C 396.382538 402.037201 401.166107 397.253601 404.410156 391.460938 C 409.000305 383.264679 409 372.333344 409 350.470703 L 409 298.828125 L 427.09375 298.828125 L 427.09375 337.214844 C 427.09375 370.616119 427.092804 387.317749 420.080078 399.839844 C 415.123901 408.689758 407.818665 415.994995 398.96875 420.951172 C 386.446625 427.963867 369.745026 427.964844 336.34375 427.964844 L 297.949219 427.964844 Z M 22.035156 152.050781 L 22.035156 113.65625 C 22.035156 80.254974 22.036131 63.553375 29.048828 51.03125 C 34.005013 42.181335 41.310253 34.876129 50.160156 29.919922 C 62.682236 22.907196 79.383881 22.90625 112.785156 22.90625 L 151.171875 22.90625 L 151.171875 41 L 99.529297 41 C 77.666649 41 66.735329 40.999695 58.539063 45.589844 C 52.746407 48.833893 47.962795 53.617493 44.71875 59.410156 C 40.12862 67.606445 40.128906 78.537781 40.128906 100.400391 L 40.128906 152.050781 L 22.035156 152.050781 Z M 409 152.050781 L 409 100.400391 C 409 78.537781 409.000305 67.606445 404.410156 59.410156 C 401.166107 53.617462 396.382507 48.833893 390.589844 45.589844 C 382.393555 40.999695 371.462219 41 349.599609 41 L 297.949219 41 L 297.949219 22.90625 L 336.34375 22.90625 C 369.745026 22.90625 386.446625 22.907196 398.96875 29.919922 C 407.818665 34.876099 415.123871 42.181335 420.080078 51.03125 C 427.092804 63.553375 427.09375 80.254974 427.09375 113.65625 L 427.09375 152.050781 L 409 152.050781 Z" />
</svg>