<?xml version="1.0" encoding="UTF-8"?>
<!-- Generated by Pixelmator Pro 3.5.7 -->
<svg width="293" height="293" viewBox="0 0 293 293" xmlns="http://www.w3.org/2000/svg">
    <path id="canvas-button" fill="none" stroke="#000000" stroke-width="22" stroke-linecap="round" stroke-linejoin="round" d="M 72.367233 280.871094 C 50.196026 280.871094 39.109756 280.870453 30.79781 276.215546 C 24.923391 272.92572 20.074295 268.07663 16.784464 262.202179 C 12.129553 253.890228 12.128906 242.80397 12.128906 220.632767 L 12.128906 195.152313 L 24.139235 195.152313 L 24.139235 229.431793 C 24.139235 243.943832 24.139042 251.199875 27.185894 256.640411 C 29.339237 260.485474 32.514515 263.660767 36.359585 265.814117 C 41.800129 268.860962 49.056156 268.860779 63.568214 268.860779 L 97.847694 268.860779 L 97.847694 280.871094 L 72.367233 280.871094 Z M 195.276031 280.871094 L 195.276031 268.860779 L 229.560684 268.860779 C 244.072723 268.860779 251.328766 268.860962 256.769318 265.814117 C 260.61441 263.660767 263.789673 260.485474 265.943024 256.640411 C 268.989868 251.199875 268.989685 243.943832 268.989685 229.431793 L 268.989685 195.152313 L 281 195.152313 L 281 220.632767 C 281 242.80397 280.999359 253.890228 276.344452 262.202179 C 273.054626 268.07663 268.205536 272.92572 262.331085 276.215546 C 254.019119 280.870453 242.932877 280.871094 220.761673 280.871094 L 195.276031 280.871094 Z M 12.128906 97.723969 L 12.128906 72.238327 C 12.128906 50.067123 12.129553 38.980881 16.784464 30.668915 C 20.074295 24.794464 24.923391 19.945404 30.79781 16.655548 C 39.109756 12.000641 50.196026 12 72.367233 12 L 97.847694 12 L 97.847694 24.010315 L 63.568214 24.010315 C 49.056156 24.010315 41.800129 24.010132 36.359585 27.056976 C 32.514519 29.210327 29.339237 32.38562 27.185894 36.230682 C 24.139044 41.671234 24.139235 48.927277 24.139235 63.439316 L 24.139235 97.723969 L 12.128906 97.723969 Z M 268.989685 97.723969 L 268.989685 63.439316 C 268.989685 48.927277 268.989868 41.671234 265.943024 36.230682 C 263.789673 32.38559 260.61438 29.210327 256.769318 27.056976 C 251.328766 24.010132 244.072723 24.010315 229.560684 24.010315 L 195.276031 24.010315 L 195.276031 12 L 220.761673 12 C 242.932877 12 254.019119 12.000641 262.331085 16.655548 C 268.205536 19.945374 273.054596 24.794464 276.344452 30.668915 C 280.999359 38.980881 281 50.067123 281 72.238327 L 281 97.723969 L 268.989685 97.723969 Z"/>
</svg>
